<?xml version="1.0" standalone="no"?>
<!DOCTYPE svg PUBLIC "-//W3C//DTD SVG 20010904//EN"
 "http://www.w3.org/TR/2001/REC-SVG-20010904/DTD/svg10.dtd">
<svg version="1.0" xmlns="http://www.w3.org/2000/svg"
 width="200.000000pt" height="200.000000pt" viewBox="0 0 200.000000 200.000000"
 preserveAspectRatio="xMidYMid meet">

<g transform="translate(0.000000,200.000000) scale(0.100000,-0.100000)"
fill="#000000" stroke="none">
<path d="M274 1930 c-67 -27 -123 -76 -159 -141 l-30 -54 0 -730 0 -730 28
-57 c32 -64 80 -111 146 -142 45 -21 55 -21 741 -21 686 0 696 0 741 21 66 31
114 78 146 142 l28 57 0 725 0 725 -28 57 c-32 64 -80 111 -146 142 -45 21
-58 21 -731 23 -660 2 -687 2 -736 -17z m871 -355 c232 -54 411 -238 460 -471
29 -135 12 -265 -51 -394 -52 -105 -170 -223 -274 -273 -133 -64 -264 -81
-401 -52 -135 29 -265 108 -356 217 -34 41 -61 60 -75 52 -3 -2 -10 26 -13 63
-4 38 -11 75 -15 83 -5 9 -3 26 5 40 8 14 10 31 5 40 -4 8 -11 35 -15 60 -7
42 -8 43 -17 20 -5 -14 -7 -47 -4 -75 4 -34 2 -43 -4 -30 -5 11 -9 59 -9 106
-2 164 74 334 204 458 39 36 98 81 132 99 125 66 295 89 428 57z m-640 -1005
c10 -11 13 -20 7 -20 -6 0 -16 9 -22 20 -6 11 -9 20 -7 20 2 0 12 -9 22 -20z"/>
<path d="M720 1411 c-32 -17 -54 -51 -33 -51 5 0 18 -9 30 -19 19 -18 20 -28
17 -317 -3 -316 -7 -408 -18 -489 -7 -48 -6 -49 10 -30 16 19 16 19 10 -12 -6
-38 8 -44 25 -10 29 52 70 185 69 220 0 21 4 53 9 70 6 18 13 64 17 102 l6 70
24 -49 c25 -52 49 -75 77 -76 17 0 18 -9 14 -107 -3 -60 -6 -112 -8 -118 -5
-21 14 -45 51 -64 l39 -20 13 26 c15 30 12 30 195 36 143 5 157 12 148 68 -5
28 1 55 24 114 34 84 37 107 18 123 -27 22 -75 24 -224 6 -127 -15 -158 -16
-175 -5 -17 11 -22 10 -30 -1 -7 -10 -11 -9 -19 6 -8 13 -13 15 -19 6 -5 -8
-9 -4 -12 12 l-4 24 93 -4 c57 -3 140 2 214 13 99 14 129 15 167 5 93 -23 102
-23 102 10 0 23 -8 35 -37 55 -21 13 -52 29 -69 35 -30 10 -30 12 -20 45 6 18
13 32 16 30 11 -6 4 85 -7 96 -9 9 -9 18 -2 32 10 18 7 19 -88 16 l-98 -4 -3
27 c-3 24 1 28 35 37 21 5 58 13 83 16 73 12 91 40 45 71 -36 24 -116 20 -202
-10 -90 -31 -173 -42 -202 -27 -16 9 -21 9 -21 0 0 -8 -4 -8 -15 1 -11 9 -15
9 -15 1 0 -47 69 -91 135 -87 l46 4 -3 -37 -3 -36 -77 -19 c-68 -16 -78 -21
-78 -40 0 -35 20 -46 83 -46 l59 0 -7 -42 c-4 -24 -9 -45 -11 -47 -2 -2 -36
-6 -76 -8 -40 -2 -83 -9 -96 -16 -18 -8 -26 -8 -38 4 -19 19 -22 213 -4 308
13 75 2 95 -58 106 -20 3 -44 8 -52 10 -9 3 -31 -3 -50 -14z m585 -293 c-15
-66 -22 -75 -62 -80 -21 -3 -39 -5 -40 -4 -1 1 4 24 11 51 13 52 12 51 89 64
5 0 5 -14 2 -31z m-421 -144 c5 -14 4 -15 -9 -4 -17 14 -19 20 -6 20 5 0 12
-7 15 -16z m446 -203 c0 -10 -3 -39 -6 -63 l-6 -45 -62 -6 c-33 -3 -86 -9
-118 -13 l-56 -7 -4 73 c-1 39 -2 73 0 75 2 1 59 3 127 3 114 1 125 -1 125
-17z"/>
<path d="M636 1085 c-24 -66 -94 -211 -124 -257 -20 -31 -22 -41 -12 -52 6 -9
9 -19 6 -25 -3 -5 -3 -17 0 -26 6 -14 16 -16 51 -12 54 6 75 24 103 90 18 42
24 77 28 183 3 92 1 133 -7 138 -7 5 -11 -1 -12 -16 -1 -23 -1 -22 -8 2 -7 23
-9 21 -25 -25z"/>
<path d="M434 828 c-19 -21 -19 -21 6 -8 33 17 33 17 22 24 -5 3 -18 -4 -28
-16z"/>
<path d="M440 786 c0 -2 7 -6 15 -10 8 -3 15 -1 15 4 0 6 -7 10 -15 10 -8 0
-15 -2 -15 -4z"/>
<path d="M1425 650 c-3 -5 -1 -10 4 -10 6 0 11 5 11 10 0 6 -2 10 -4 10 -3 0
-8 -4 -11 -10z"/>
</g>
</svg>
