<?xml version="1.0" standalone="no"?>
<!DOCTYPE svg PUBLIC "-//W3C//DTD SVG 20010904//EN"
 "http://www.w3.org/TR/2001/REC-SVG-20010904/DTD/svg10.dtd">
<svg version="1.0" xmlns="http://www.w3.org/2000/svg"
 width="200.000000pt" height="200.000000pt" viewBox="0 0 200.000000 200.000000"
 preserveAspectRatio="xMidYMid meet">

<g transform="translate(0.000000,200.000000) scale(0.100000,-0.100000)"
fill="#000000" stroke="none">
<path d="M276 1934 c-36 -11 -65 -31 -107 -73 -94 -95 -90 -51 -87 -882 l3
-714 27 -50 c31 -60 77 -104 138 -136 l45 -24 705 0 705 0 45 24 c61 32 107
76 138 136 l27 50 0 735 0 735 -27 51 c-36 68 -108 130 -171 149 -75 22 -1368
21 -1441 -1z m302 -172 c6 -19 -13 -14 -33 8 -18 20 -18 21 5 12 13 -5 26 -14
28 -20z m117 -162 c39 -18 80 -32 93 -32 12 0 25 -4 28 -9 8 -14 24 -10 24 6
0 18 4 19 31 3 18 -11 23 -10 26 0 4 10 16 3 42 -22 38 -37 137 -86 158 -79
18 6 96 -61 228 -193 60 -61 125 -121 143 -133 34 -23 44 -61 16 -61 -12 0
-15 -7 -12 -30 4 -23 1 -30 -12 -30 -22 0 -50 -71 -50 -127 0 -32 -6 -46 -25
-61 -18 -15 -25 -29 -25 -56 0 -20 5 -36 10 -36 6 0 10 -9 10 -20 0 -24 -97
-72 -129 -63 -13 3 -23 0 -27 -10 -5 -14 -9 -14 -39 0 l-34 16 61 41 c132 88
203 266 168 417 -39 168 -167 289 -340 321 -112 21 -247 -21 -338 -106 -52
-49 -105 -137 -117 -196 -4 -19 -10 -41 -14 -48 -10 -18 -101 99 -101 129 0
12 -7 30 -16 40 -14 16 -14 18 5 24 12 3 28 20 37 36 17 34 32 33 96 -7 21
-13 42 -24 47 -24 13 0 24 37 15 51 -3 6 -2 14 3 18 30 19 22 49 -31 128 -30
44 -53 83 -50 86 4 3 6 21 6 41 0 40 -7 41 113 -14z m492 -58 c33 -15 91 -87
80 -98 -12 -12 -111 53 -145 94 l-34 41 34 -11 c18 -6 47 -17 65 -26z m-54
-186 c73 -35 149 -118 177 -194 31 -82 25 -205 -14 -280 -22 -44 -30 -51 -42
-42 -7 7 -14 25 -14 41 0 16 -4 29 -10 29 -5 0 -10 -4 -10 -10 0 -5 -9 -19
-20 -30 -17 -17 -33 -20 -105 -20 l-85 0 0 26 0 26 93 -3 92 -4 6 55 c4 30 10
65 14 77 5 16 1 25 -20 39 -18 12 -23 20 -16 27 6 6 11 32 11 57 0 25 5 51 12
58 9 9 6 17 -12 37 -27 29 -42 31 -60 10 -8 -9 -29 -15 -59 -15 -43 1 -45 2
-27 15 11 8 28 15 38 15 25 0 22 22 -6 49 -23 21 -25 22 -54 7 -17 -9 -46 -16
-64 -16 -31 1 -32 2 -14 15 16 12 17 17 6 30 -7 8 -19 15 -26 15 -8 0 -14 5
-14 11 0 8 26 10 84 7 64 -3 96 -10 139 -32z m-273 4 c0 -12 -139 -150 -151
-150 -5 0 -9 -5 -9 -10 0 -6 12 -9 28 -8 26 3 27 2 30 -54 2 -35 -1 -58 -7
-58 -6 0 -11 -41 -13 -100 l-3 -100 -52 49 -53 48 0 66 c0 120 63 231 169 299
48 30 61 34 61 18z m116 -70 c12 0 11 -5 -2 -25 -15 -22 -23 -25 -78 -25 l-61
1 35 30 c27 24 41 29 64 25 16 -3 35 -6 42 -6z m-41 -90 c4 -6 -17 -10 -55
-10 -38 0 -59 4 -55 10 3 6 28 10 55 10 27 0 52 -4 55 -10z m185 0 c0 -5 -25
-10 -55 -10 -30 0 -55 5 -55 10 0 6 25 10 55 10 30 0 55 -4 55 -10z m-185 -60
c-3 -5 -28 -10 -55 -10 -27 0 -52 5 -55 10 -4 6 17 10 55 10 38 0 59 -4 55
-10z m185 0 c0 -5 -25 -10 -55 -10 -30 0 -55 5 -55 10 0 6 25 10 55 10 30 0
55 -4 55 -10z m-182 -62 c3 -16 -5 -18 -66 -18 -93 0 -118 9 -71 26 50 19 133
14 137 -8z m195 8 c16 -12 16 -14 1 -20 -8 -3 -40 -6 -70 -6 -47 0 -54 2 -54
20 0 18 7 20 53 20 28 0 60 -7 70 -14z m-193 -76 c0 -6 -28 -10 -65 -10 -37 0
-65 4 -65 10 0 6 28 10 65 10 37 0 65 -4 65 -10z m190 0 c0 -6 -27 -10 -60
-10 -33 0 -60 4 -60 10 0 6 27 10 60 10 33 0 60 -4 60 -10z m-578 -67 c19 -12
40 -39 58 -78 30 -66 90 -133 155 -174 l41 -26 -43 -2 c-42 -1 -43 0 -107 80
-35 45 -73 91 -85 101 -13 12 -19 26 -15 38 4 13 1 16 -9 12 -16 -6 -32 11
-40 44 -6 27 5 28 45 5z m383 7 c-3 -5 -33 -10 -66 -10 -33 0 -59 4 -59 10 0
6 29 10 66 10 41 0 63 -4 59 -10z m195 0 c0 -6 -27 -10 -60 -10 -33 0 -60 4
-60 10 0 6 27 10 60 10 33 0 60 -4 60 -10z m-343 -137 c40 -30 103 -70 140
-90 l68 -35 -61 5 c-96 8 -190 63 -244 145 -54 81 -38 77 97 -25z m153 47 c0
-64 23 -73 175 -69 l126 4 -28 -23 c-38 -32 -118 -72 -142 -72 -26 0 -225 93
-267 125 l-33 25 22 24 c18 20 32 24 85 25 l62 1 0 -40z m161 -267 c20 -19 40
-44 43 -56 4 -12 26 -36 49 -52 43 -31 109 -137 94 -151 -4 -4 -40 24 -80 63
-79 77 -180 154 -242 185 -22 12 -50 28 -61 37 -21 16 -17 17 69 13 87 -4 92
-6 128 -39z m-344 -37 c-6 -17 -31 -13 -35 6 -2 12 2 15 18 11 11 -3 19 -11
17 -17z m380 -173 c22 -28 63 -92 63 -99 0 -8 -103 85 -113 102 -12 21 33 18
50 -3z"/>
</g>
</svg>
